<?xml version="1.0" encoding="UTF-8"?>
<svg version="1.1" xmlns="http://www.w3.org/2000/svg" width="137" height="148">
<path d="M0 0 C45.21 0 90.42 0 137 0 C137 48.84 137 97.68 137 148 C91.79 148 46.58 148 0 148 C0 99.16 0 50.32 0 0 Z " fill="#030303" transform="translate(0,0)"/>
<path d="M0 0 C2.49125226 2.17556686 4.8234821 4.41850371 7.12109375 6.796875 C7.88550781 7.58707031 8.64992188 8.37726562 9.4375 9.19140625 C13.07698156 13.11735863 15.08510168 15.70689482 17.12109375 20.796875 C13.16109375 22.116875 9.20109375 23.436875 5.12109375 24.796875 C4.58742188 24.08402344 4.05375 23.37117188 3.50390625 22.63671875 C-6.14440268 10.23413478 -18.25430606 2.37888609 -33.87890625 -0.203125 C-50.70004732 -1.8238141 -64.9568117 1.37501896 -78.47265625 11.796875 C-84.68911164 17.0396687 -89.07577503 22.62498034 -92.87890625 29.796875 C-93.38679688 30.70308594 -93.8946875 31.60929687 -94.41796875 32.54296875 C-100.25136735 44.8126591 -99.8921042 61.24629411 -96.25390625 74.171875 C-90.98560036 88.06104509 -82.0911435 98.89905763 -68.87890625 105.796875 C-51.70253838 113.45285421 -36.69224631 113.37752389 -19.05859375 106.734375 C-9.27032728 102.31584719 -1.79529567 94.6233584 4.12109375 85.796875 C8.96768452 86.38792265 12.72857542 87.77631657 17.12109375 89.796875 C10.34401407 105.39991891 -4.44933927 115.56346139 -19.75390625 121.734375 C-34.00874211 127.11183866 -54.69667273 127.25235345 -68.66162109 120.99853516 C-87.01242093 112.37249039 -100.89862951 99.40058556 -108.23828125 80.25 C-114.05598106 61.95375566 -113.57633302 42.72409682 -105.65625 25.19921875 C-102.92172889 19.96456405 -99.56449584 15.39420373 -95.87890625 10.796875 C-95.09515625 9.745 -94.31140625 8.693125 -93.50390625 7.609375 C-68.97569311 -18.67085337 -28.36258223 -21.70487976 0 0 Z " fill="#F7F7F7" transform="translate(114.87890625,19.203125)"/>
<path d="M0 0 C0.88558594 -0.01160156 1.77117187 -0.02320312 2.68359375 -0.03515625 C8.81193553 -0.00815915 13.82675311 1.09657614 19.5 3.375 C20.39589844 3.71660156 21.29179688 4.05820312 22.21484375 4.41015625 C29.26907247 7.67072242 34.51704867 12.43572468 39.5 18.375 C39.995 19.86 39.995 19.86 40.5 21.375 C32.73612991 25.31613667 32.73612991 25.31613667 28.875 25.5 C25.90076182 24.09115033 23.82191948 22.13748584 21.39453125 19.9375 C13.31821262 13.27661866 3.62787578 12.40773096 -6.5 13.375 C-16.25183145 15.84305611 -24.8013531 21.48614054 -30.1953125 30.07421875 C-34.94059588 39.36141622 -35.97029146 49.40152373 -33.875 59.6875 C-29.78707846 70.65056231 -23.67626228 77.0997361 -13.28125 82.53515625 C-4.15275145 86.19677414 6.88660783 85.53769739 15.87890625 81.86328125 C20.72149272 79.1136159 24.61168784 75.32235378 28.5 71.375 C32.5 72.70833333 36.5 74.04166667 40.5 75.375 C37.64702336 83.74275108 30.95148615 88.9332329 23.25 92.8125 C9.83480654 99.04098268 -3.38955149 100.52116357 -17.5 95.375 C-30.45407692 90.22458387 -39.26058293 81.18106805 -44.78515625 68.40234375 C-49.71719477 55.2679186 -50.3502117 42.36591127 -44.5 29.375 C-38.00996606 16.3467388 -29.20150727 6.87972978 -15.3046875 1.6953125 C-10.18494333 0.07731538 -5.33515444 -0.06989285 0 0 Z " fill="#F7F7F7" transform="translate(71.5,25.625)"/>
</svg>
